<svg viewBox="0 0 163 40" version="1.1" xmlns="http://www.w3.org/2000/svg" xmlns:xlink="http://www.w3.org/1999/xlink" xml:space="preserve" xmlns:serif="http://www.serif.com/" style="fill-rule:evenodd;clip-rule:evenodd;stroke-linejoin:round;stroke-miterlimit:2;">
    <g transform="matrix(1,0,0,1,17.1087,1.31735)">
        <path d="M28.535,26.462L28.535,8.621L31.954,8.621L31.954,26.462L28.535,26.462ZM35.46,11.785L35.46,8.621L38.879,8.621L38.879,11.785L35.46,11.785ZM35.46,26.462L35.46,13.538L38.879,13.538L38.879,26.462L35.46,26.462ZM48.311,13.538L48.311,16.264L45.975,16.264L45.975,21.473C45.975,22.527 45.997,23.142 46.042,23.316C46.086,23.491 46.188,23.635 46.346,23.748C46.504,23.862 46.697,23.919 46.924,23.919C47.24,23.919 47.699,23.809 48.299,23.59L48.591,26.243C47.796,26.584 46.896,26.755 45.89,26.755C45.273,26.755 44.717,26.651 44.222,26.444C43.727,26.237 43.364,25.97 43.133,25.641C42.902,25.312 42.741,24.868 42.652,24.308C42.579,23.911 42.543,23.107 42.543,21.899L42.543,16.264L40.973,16.264L40.973,13.538L42.543,13.538L42.543,10.97L45.975,8.974L45.975,13.538L48.311,13.538ZM56.612,13.538L56.612,16.264L54.275,16.264L54.275,21.473C54.275,22.527 54.297,23.142 54.342,23.316C54.386,23.491 54.488,23.635 54.646,23.748C54.804,23.862 54.997,23.919 55.224,23.919C55.541,23.919 55.999,23.809 56.599,23.59L56.892,26.243C56.096,26.584 55.196,26.755 54.19,26.755C53.573,26.755 53.017,26.651 52.522,26.444C52.027,26.237 51.664,25.97 51.433,25.641C51.202,25.312 51.042,24.868 50.952,24.308C50.879,23.911 50.843,23.107 50.843,21.899L50.843,16.264L49.273,16.264L49.273,13.538L50.843,13.538L50.843,10.97L54.275,8.974L54.275,13.538L56.612,13.538ZM58.985,26.462L58.985,8.621L62.405,8.621L62.405,26.462L58.985,26.462ZM73.395,22.349L76.802,22.921C76.364,24.17 75.672,25.122 74.727,25.775C73.782,26.428 72.599,26.755 71.18,26.755C68.932,26.755 67.269,26.02 66.19,24.552C65.338,23.375 64.912,21.89 64.912,20.097C64.912,17.955 65.472,16.278 66.591,15.065C67.711,13.852 69.127,13.245 70.839,13.245C72.762,13.245 74.279,13.88 75.39,15.15C76.502,16.42 77.033,18.365 76.985,20.986L68.417,20.986C68.441,22 68.717,22.789 69.244,23.353C69.772,23.917 70.429,24.199 71.216,24.199C71.752,24.199 72.202,24.053 72.567,23.761C72.932,23.469 73.208,22.998 73.395,22.349ZM73.589,18.892C73.565,17.903 73.309,17.15 72.823,16.635C72.336,16.12 71.743,15.862 71.046,15.862C70.299,15.862 69.683,16.134 69.196,16.677C68.709,17.221 68.47,17.959 68.478,18.892L73.589,18.892ZM79.504,31.379L79.504,13.538L84.141,13.538L84.141,15.448C84.782,14.645 85.37,14.101 85.906,13.817C86.628,13.436 87.427,13.245 88.303,13.245C90.031,13.245 91.368,13.907 92.313,15.229C93.259,16.552 93.731,18.187 93.731,20.134C93.731,22.284 93.216,23.925 92.186,25.057C91.155,26.189 89.853,26.755 88.279,26.755C87.516,26.755 86.82,26.625 86.192,26.365C85.563,26.105 85.001,25.72 84.506,25.209L84.506,31.379L79.504,31.379ZM84.47,20.037C84.47,21.059 84.685,21.817 85.115,22.312C85.545,22.807 86.088,23.055 86.745,23.055C87.321,23.055 87.804,22.817 88.194,22.343C88.583,21.868 88.778,21.063 88.778,19.927C88.778,18.88 88.575,18.112 88.169,17.621C87.764,17.13 87.269,16.884 86.685,16.884C86.052,16.884 85.524,17.132 85.102,17.627C84.681,18.122 84.47,18.925 84.47,20.037ZM96.275,8.621L101.24,8.621L101.24,26.462L96.275,26.462L96.275,8.621ZM108.92,17.724L104.186,17.225C104.364,16.398 104.622,15.746 104.958,15.272C105.295,14.797 105.78,14.385 106.413,14.037C106.867,13.785 107.492,13.59 108.287,13.452C109.082,13.314 109.942,13.245 110.867,13.245C112.352,13.245 113.545,13.329 114.445,13.495C115.346,13.661 116.096,14.008 116.697,14.536C117.119,14.901 117.451,15.418 117.695,16.087C117.938,16.757 118.06,17.396 118.06,18.004L118.06,23.712C118.06,24.32 118.098,24.797 118.175,25.142C118.252,25.487 118.421,25.927 118.68,26.462L114.031,26.462C113.845,26.13 113.723,25.876 113.666,25.702C113.609,25.527 113.553,25.254 113.496,24.88C112.847,25.505 112.202,25.951 111.561,26.219C110.685,26.576 109.666,26.755 108.506,26.755C106.964,26.755 105.794,26.398 104.995,25.684C104.196,24.97 103.796,24.089 103.796,23.043C103.796,22.061 104.084,21.254 104.66,20.621C105.236,19.988 106.299,19.517 107.849,19.209C109.707,18.836 110.912,18.574 111.463,18.424C112.015,18.274 112.599,18.077 113.216,17.834C113.216,17.225 113.09,16.799 112.839,16.556C112.587,16.312 112.145,16.191 111.512,16.191C110.701,16.191 110.092,16.32 109.687,16.58C109.37,16.783 109.115,17.164 108.92,17.724ZM113.216,20.329C112.534,20.572 111.824,20.787 111.086,20.974C110.08,21.241 109.443,21.505 109.175,21.765C108.9,22.032 108.762,22.337 108.762,22.677C108.762,23.067 108.898,23.385 109.169,23.633C109.441,23.88 109.841,24.004 110.368,24.004C110.92,24.004 111.433,23.87 111.908,23.602C112.382,23.335 112.719,23.008 112.918,22.623C113.117,22.237 113.216,21.736 113.216,21.12L113.216,20.329ZM121.029,13.538L125.642,13.538L125.642,15.643C126.332,14.783 127.029,14.168 127.735,13.799C128.441,13.43 129.301,13.245 130.315,13.245C131.687,13.245 132.76,13.653 133.534,14.469C134.309,15.284 134.697,16.544 134.697,18.247L134.697,26.462L129.719,26.462L129.719,19.355C129.719,18.544 129.569,17.97 129.269,17.633C128.968,17.296 128.547,17.128 128.003,17.128C127.403,17.128 126.916,17.355 126.543,17.809C126.169,18.264 125.983,19.079 125.983,20.256L125.983,26.462L121.029,26.462L121.029,13.538Z"/>
    </g>
    <g transform="matrix(2.21531,0,0,2.21531,-25.5197,-15.2323)">
        <path d="M25.793,12.486L26.261,12.486C26.333,12.486 26.393,12.51 26.441,12.558C26.489,12.606 26.513,12.662 26.513,12.726L26.513,20.178C26.513,20.242 26.489,20.298 26.441,20.346C26.393,20.394 26.333,20.418 26.261,20.418L22.697,20.418L22.025,20.754C21.985,20.77 21.945,20.778 21.905,20.778L20.453,20.778C20.413,20.778 20.377,20.77 20.345,20.754L19.661,20.418L15.737,20.418C15.689,20.418 15.645,20.408 15.605,20.388C15.565,20.368 15.535,20.338 15.515,20.298C15.495,20.258 15.485,20.218 15.485,20.178L15.485,12.378C15.485,12.346 15.489,12.318 15.497,12.294C15.505,12.27 15.517,12.248 15.533,12.228C15.549,12.208 15.567,12.192 15.587,12.18C15.607,12.168 15.629,12.158 15.653,12.15C15.677,12.142 15.705,12.138 15.737,12.138L16.205,12.138L16.205,12.018C16.205,11.954 16.229,11.898 16.277,11.85C16.325,11.802 16.381,11.778 16.445,11.778L17.285,11.778L17.285,11.31C17.285,11.27 17.295,11.232 17.315,11.196C17.335,11.16 17.361,11.132 17.393,11.112C17.425,11.092 17.461,11.078 17.501,11.07C17.597,11.054 17.705,11.042 17.825,11.034C17.945,11.026 18.173,11.028 18.509,11.04C18.845,11.052 19.157,11.086 19.445,11.142C19.733,11.198 20.049,11.306 20.393,11.466C20.737,11.626 21.025,11.83 21.257,12.078C21.617,11.934 21.993,11.838 22.385,11.79L22.385,11.67C22.385,11.598 22.409,11.538 22.457,11.49C22.505,11.442 22.565,11.418 22.637,11.418L24.101,11.418C24.165,11.418 24.221,11.442 24.269,11.49C24.317,11.538 24.341,11.598 24.341,11.67L24.341,11.778C24.741,11.794 25.181,11.922 25.661,12.162C25.749,12.202 25.793,12.274 25.793,12.378L25.793,12.486ZM23.849,11.862L22.889,11.862L22.889,16.602L23.249,16.422C23.289,16.406 23.329,16.398 23.369,16.398C23.409,16.398 23.445,16.406 23.477,16.422L23.849,16.602L23.849,11.862ZM22.385,12.174C22.049,12.222 21.729,12.31 21.425,12.438L21.425,19.374C21.721,19.27 22.005,19.214 22.277,19.206L25.301,19.206L25.301,12.426C24.949,12.266 24.629,12.178 24.341,12.162L24.341,16.938C24.341,16.986 24.331,17.028 24.311,17.064C24.291,17.1 24.261,17.13 24.221,17.154C24.181,17.178 24.137,17.19 24.089,17.19C24.057,17.19 24.021,17.182 23.981,17.166L23.369,16.854L22.745,17.166C22.713,17.182 22.677,17.19 22.637,17.19C22.565,17.19 22.505,17.166 22.457,17.118C22.409,17.07 22.385,17.01 22.385,16.938L22.385,12.174ZM20.933,12.354C20.733,12.122 20.477,11.932 20.165,11.784C19.853,11.636 19.553,11.542 19.265,11.502C18.977,11.462 18.693,11.432 18.413,11.412C18.133,11.392 17.925,11.394 17.789,11.418L17.789,18.138C19.157,18.178 20.205,18.514 20.933,19.146L20.933,12.354ZM17.285,12.162L16.697,12.162L16.697,18.846C16.697,18.846 18.321,18.846 18.353,18.846C18.745,18.846 19.201,18.898 19.721,19.002C19.105,18.746 18.377,18.618 17.537,18.618C17.465,18.618 17.405,18.594 17.357,18.546C17.309,18.498 17.285,18.442 17.285,18.378L17.285,12.162ZM21.269,20.034L21.173,20.046C21.173,20.046 21.121,20.046 21.113,20.046C21.089,20.038 21.073,20.03 21.065,20.022L21.029,20.01L21.041,20.022C20.353,19.566 19.429,19.338 18.269,19.338L16.445,19.338C16.381,19.338 16.325,19.314 16.277,19.266C16.229,19.218 16.205,19.162 16.205,19.098L16.205,12.522L15.977,12.522L15.977,19.926L19.721,19.926C19.761,19.926 19.797,19.934 19.829,19.95L20.513,20.286L21.845,20.286L22.529,19.95C22.561,19.934 22.597,19.926 22.637,19.926L26.021,19.926L26.009,12.882L25.781,12.882L25.781,19.446C25.781,19.518 25.757,19.578 25.709,19.626C25.661,19.674 25.605,19.698 25.541,19.698L22.265,19.698C22.137,19.698 21.977,19.72 21.785,19.764C21.593,19.808 21.449,19.882 21.353,19.986L21.341,19.986L21.317,20.01L21.281,20.034L21.269,20.034ZM19.613,14.238L20.453,14.238C20.517,14.238 20.575,14.262 20.627,14.31C20.679,14.358 20.705,14.416 20.705,14.484C20.705,14.552 20.679,14.61 20.627,14.658C20.575,14.706 20.517,14.73 20.453,14.73L19.613,14.73L19.613,16.998C19.613,17.07 19.587,17.13 19.535,17.178C19.483,17.226 19.423,17.25 19.355,17.25C19.287,17.25 19.229,17.226 19.181,17.178C19.133,17.13 19.109,17.07 19.109,16.998L19.109,14.73L18.269,14.73C18.197,14.73 18.137,14.706 18.089,14.658C18.041,14.61 18.017,14.552 18.017,14.484C18.017,14.416 18.041,14.358 18.089,14.31C18.137,14.262 18.197,14.238 18.269,14.238L19.109,14.238L19.109,13.41C19.109,13.37 19.119,13.33 19.139,13.29C19.159,13.25 19.189,13.22 19.229,13.2C19.269,13.18 19.313,13.17 19.361,13.17C19.425,13.17 19.483,13.194 19.535,13.242C19.587,13.29 19.613,13.346 19.613,13.41L19.613,14.238Z" style="fill-rule:nonzero;"/>
    </g>
</svg>
